<?xml version="1.0" encoding="UTF-8" standalone="no"?>
<svg xmlns="http://www.w3.org/2000/svg" width="447.34113" height="314.09225" version="1.0">
  <g style="opacity:1">
    <g style="opacity:1">
      <path d="m0 0 .501-.741C2.97-4.253 5.562-7.038 9.45-9l.909-.426-.287-.051-.274-.04-.274-.021-.253-.008c-2.707-.209-5.096 1.831-7.503 2.801l-.453.204-.443.163c-3.339 1.297-6.773.425-10.119-.315l-.467-.112-.466-.101-.466-.112-.49-.092-.49-.101c-2.034-.463-4.106-.624-6.155-1.149l-.656-.141-.611-.123c-1.52-.289-3.458-.643-4.934 0l-.132.144-.011.152.085.172.142.161c.528.554 2.226 1.412 2.355 2.175l-.013.213-.108.183c-.592.72-2.492.689-3.346.65l-.321-.029-.324-.032-.274-.04-.251-.052-.405-.091-.838-.242c-3.166-.992-5.986-3.239-9.213-3.982l-.393-.092-.419-.08c-4.592-.956-5.555 3.828-10.277 3.686l-.308-.02-.287-.032-.288-.029-.287-.043c-4.089-.807-8.145.85-12.056-.02l-.503-.121-.5-.132c-4.042-1.292-6.072-2.812-10.457-2.539l-.345.011-.348.02h-.321l-.324.009-10.025 48.619.203-.069.179-.083.193-.09.179-.071c2.581-1.302 3.488-1.002 6.333-.853h.358l.359-.021c4.783-.49 9.137-4.086 14.242-4.053h.598l1.217.04.635.041c4.37.127 7.954 1.357 12.08 1.879l.537.051h.227c2.442-.543 2.101-1.622 5.424-1.747l.23-.009.213-.031.227-.02.216-.031.216-.029.213-.043c3.097-.835 3.277-1.547 6.918-.721l.467.103.466.112c3.291.922 5.478 1.067 8.771.222l.347-.07.251-.06.239-.063.251-.081c4.933-1.19 2.72-3.613 5.113-6.196l.216-.233.214-.193c1.931-1.682 3.354-2.355 5.904-2.234l.213.02.216.031.179.029.18.031-.18-1.289-.25-1.279-.277-1.281-.297-1.29-.311-1.299-.274-1.281-.25-1.278-.18-1.27.058-.387.145-.437.179-.477.227-.457.298-.445c.821-1.23 2.472-1.401 3.572-2.318l.409-.294.392-.304.406-.316C-3.001 7.356-2.032 4.308-.406.862l.19-.436L0 0" style="fill:#102986;fill-opacity:1;fill-rule:nonzero;stroke:none" transform="matrix(4.69176 0 0 -6.24748 395.716188 251.836459)"/>
    </g>
    <path d="m344.5398 333.68157-11.21331-22.14733 1.28554-.37484 1.35123-.3811c5.21255-1.51814 14.1222-2.37404 18.72481 1.83676l.89144 1.01834.83982 1.45566.33312 1.39944-.05161 1.33071-.50671 1.32447-.77884 1.27449-1.01342 1.27448-1.23393 1.1308-1.28554 1.20576c-1.8767 1.40569-4.65422 3.94841-6.23066 5.84765l-.77883 1.19951-.33311 1.27449v1.33071" style="opacity:1;fill:#363639;fill-opacity:1;fill-rule:nonzero;stroke:none" transform="translate(-61.613462 -28.666531)"/>
    <path d="M261.09303 110.88439c-3.60125.56774-8.01293-.1265-12.07666-.25978-1.3613-.51624-3.45768-.39898-5.35745-1.02444 3.40247 3.22035 6.63628 6.79668 10.28867 9.7512l.29349.95829c-1.35891 4.09308-1.42716 9.26831-2.55885 13.33l.64417.15006c4.10029-2.50272 7.98528-5.06579 11.30353-8.22108l1.27196.27907c4.11123 3.55817 7.23771 7.89694 11.77164 10.78423.07739-2.04739-1.13147-3.58525-.90976-5.87609-.96121-2.58567-.81983-5.19634-1.03421-8.17107 4.40475-1.56066 7.93378-4.76848 12.46873-5.81176l.05565-.28318c-5.18853-.5739-10.46973-1.38361-15.39488-3.18163-1.78271-4.51146-2.65113-9.11111-4.43903-13.624436-1.86328 3.895076-3.95256 7.627336-6.327 11.200616m-46.0391 1.77236c-1.80951.46141-4.17239-.84511-5.76157-1.98998l-6.10001-5.09309c-1.07701 5.2418 2.221 11.3744 5.58523 16.42881-1.08531 3.6715-1.8584 7.71658-2.73914 12.11697l.39585.38365c3.77552-.91412 7.395-2.44598 11.30633-2.83307 5.21715 4.30287 9.9614 9.59715 15.83255 12.37765-2.19627-5.40205-3.7389-10.72893-5.61869-16.14267 3.61669-3.0016 8.85948-4.8652 12.86837-6.80953-5.58398-.94981-11.26167-1.35217-16.54709-4.39812-1.7569-5.39952-1.91091-11.19376-4.03426-16.37979-1.6381 3.73402-3.72094 8.26238-5.18757 12.33917m93.58144 15.10275-6.01215 7.45711c-4.22711-1.25427-8.41522-3.46513-13.21988-4.55207.84244.98036 2.71515 2.47068 3.89007 3.60693 1.11814 2.91052 3.97701 5.31194 5.31809 8.2679-.79346.89795-2.30737 2.20214-1.64619 3.74117-2.19759 2.34815-3.71407 5.91896-5.17262 9.21754 3.39501-2.86963 8.74372-3.42327 12.38464-5.82963 1.13628 1.42054.77 3.30256 1.60401 4.96238.82725 2.83288 1.8007 5.88809 2.99738 8.40745 1.4344-3.98482 2.75901-8.57822 3.63422-13.07921l.95891-.57254c3.0588.88635 5.63103 1.37386 8.68124 2.35064-3.48459-3.32597-6.08024-7.54056-9.49156-10.55179-.68792-6.03581-1.11211-11.50079-1.12289-17.58944-.84215 1.27721-2.13404 2.54812-2.80327 4.16356m-116.87628 7.89284c-2.04308-1.93633-4.32026-3.7199-6.87434-5.08057 1.01804 3.65032 2.38669 7.20021 4.2968 10.7593-2.50602 3.74044-5.24792 7.53948-6.8279 11.59033 3.75637-.02868 7.06276-1.64118 10.54395-2.91224 1.66614 3.00804 3.74348 6.21572 5.37193 9.43254l.52608.13006 1.64698-10.02032 5.69941-1.36185c-1.80715-3.53694-6.95501-5.19072-7.34578-9.39981 1.01-3.19069-.07187-6.45965.39751-9.79828l-6.47535 6.86703-.95929-.20619zM326.05537 176.081c-.83881.50488-1.94624-.14429-2.66516-.60463l-6.06913-4.50048c.30158 4.86943 2.73146 9.43094 3.68122 14.33816l-4.67373 10.30336.36437.58206 10.00143-5.28547c2.14754 2.634 4.18812 6.12916 5.87512 9.05376l.51901.12495.51767-11.3448c3.43153.57148 7.52368 1.3142 10.96849 1.88041-2.61243-2.63821-6.55503-5.78133-10.03478-8.43311-.74526-.94005-.54552-2.27318-.41394-3.21138-.60711-3.48619.91052-7.93123.30092-11.40063-3.07629 2.34306-5.9522 5.40087-8.37149 8.4978m-144.95815-5.81838c-3.75761-1.53654-7.35915-3.22634-10.8447-5.08898 2.39805 4.04439 4.42433 7.5571 6.91097 11.73219-1.34643 1.75927-4.05242 4.4843-4.66508 7.28311-1.22244.89919-1.56123 2.38667-2.48148 3.44599 3.97904-.17296 7.11373-2.78052 11.23201-2.36453 1.26774 2.73216 3.03065 5.77278 5.41205 8.37271.94854-3.50622-2.80293-10.4225 3.5445-10.94779 1.71684-.38883 3.68226-1.12994 5.03139-2.09951-2.51128-.85978-4.62269-2.21922-6.84516-3.59366-.76758-3.99936-.94681-8.15453-1.45315-12.18307-1.88621 1.62677-3.74962 3.85335-5.84135 5.44354m159.31875 44.20328c-1.33103.86742-2.36305-1.12456-3.77338-1.36026-2.04426-1.12529-4.60985-1.61546-6.48494-3.02575l-.13584.86081c1.6823 3.61049 3.15912 7.18443 5.6267 10.76614l-5.59023 11.36907c4.06185.13009 7.98863-1.91983 12.03032-2.58832 2.63462 4.02903 5.51877 7.6303 8.56544 10.94916l.46132-.18414c-1.00892-4.44077-1.07377-9.35331-.48575-13.52612 3.00235-1.77581 5.54331-4.04751 8.48898-5.52785l.05003-.2928-9.75158-2.5718c.14442-4.86953.30073-9.83085.32744-14.71274l-.52792-.1332-8.80059 9.9778zm-154.38704-4.0313c-2.26577-2.5631-5.52071-3.77839-8.35926-5.40902 1.80993 4.23566 4.28494 7.61277 6.24574 11.69328-1.7534 3.02486-2.77733 6.33183-4.82849 9.09201 2.61793.97933 5.56247.37324 8.03027 1.61413l.74715.17226c2.15428 2.54038 4.6743 5.74926 7.4336 8.0362-.67151-3.85582-2.08821-7.81748-1.98894-11.50262 1.48155-.35026 2.69749 1.19271 4.46741 1.09106l2.90046.56607c-2.47335-4.18037-6.67761-8.07309-8.36323-12.45329l-.98672-12.27436c-2.06708 2.96419-2.43622 7.07733-5.29799 9.37428m134.25389 37.55927c-2.84564-2.40675-6.58579-3.93446-10.18206-4.94233 2.67726 3.63241 5.748 8.34534 5.0314 12.58532-3.23206 2.59497-4.94885 6.13112-6.77427 9.63542 3.12667-.37826 6.55287-1.16874 9.76607-2.00861 1.90646 3.46171 2.01233 7.39313 3.35092 11.13688.43695 1.47039 1.44805 2.86578 2.02542 4.26826.78083-3.84255 2.96796-7.64551 3.98446-11.73629 4.45708-1.84255 9.69135-3.08988 15.11521-2.55453l.05427-.36964c-3.966-2.18089-7.94519-4.44746-11.50705-7.20483-.62793-5.71576-1.67759-11.45299-2.73448-17.16755-2.39724 2.9735-5.31348 5.66781-8.12989 8.3579m-113.69563-1.18979c-2.94616-.28687-5.24299-1.87279-7.87443-3.34494.00702 2.93498 2.28773 6.29471 4.04069 9.3393-.97837 4.66075-1.21043 10.09514-.37019 14.89187 1.1232-.14393.94793-1.94417 1.89354-2.51145 1.257-.9802 1.92767-2.60018 3.60808-2.91119 3.78965 5.17325 8.82725 9.14053 13.68454 12.97421l.12202-.15549c-1.70366-4.21482-3.80573-8.70553-4.05023-13.24586l.54958-.76898c4.18027-1.51059 9.04009-3.24506 12.51705-5.98133-4.86905-1.30241-10.63675-2.60196-15.33757-5.03912-2.24446-5.10606-3.4872-10.28379-4.27007-15.64114l-1.0742.63445-3.43881 11.75967zm84.18484 24.17184-1.18611.60396-10.98802.75673c2.76177 3.658 6.97114 6.56416 10.17439 10.41757l-3.77327 12.46255c3.729-2.19242 7.39223-4.68673 10.34508-7.64079 3.96888 2.94283 6.99341 7.24719 11.13616 9.83594l-5.61174-13.88774c3.57368-1.93272 8.11144-4.43614 11.82939-6.52132-3.08389-1.4971-7.92047-2.3934-11.92003-3.58033-2.63435-4.61036-3.91983-9.60893-6.30545-14.44511-1.74438 3.71319-1.85357 8.39074-3.7004 11.99854m-38.11823-4.58836c-1.1634 2.68258-1.65746 6.18922-2.77713 8.68035l-1.29756.58126c-3.51248-.1003-7.27335-.6471-10.71602-1.3288l-.0521.47153 9.43028 6.44442c-1.43879 3.781-4.22359 7.17011-5.98424 10.98863 4.25975-1.20623 8.22335-3.63465 12.32737-5.35995 3.59473 3.26226 7.59109 6.11897 11.58933 8.97893l-5.09914-12.79946.21412-.82487c3.7672-1.71341 7.30219-4.04187 10.63138-5.05457-.86493-.09362-1.70852 1.18814-2.34351.15659l-7.55789-.82608-1.52467-1.02036-6.43527-12.02491c.27331 1.23917-1.13055 1.79961-.40495 2.93729" style="fill:#ece201;fill-opacity:.95560656;fill-rule:evenodd" transform="matrix(1.0503 0 0 1 -74.922316 -28.666531)"/>
    <path d="M97.20399 38.200495c-1.538597-.028788-3.151699.032787-4.809053.156187l-1.876704.312375-1.876704.312374-1.759409.312374.234588 4.529425.234588 4.685613c-.140791 9.215038 5.503433 15.500007 9.618106 21.866192l.938352 1.405684.938351 1.405684c8.886195 13.213427 4.508785 15.606214 8.562465 28.894607l1.40752 2.65518 1.17294 1.09331 1.05565-.46856.93835-1.56187.82106-1.87424.82106-1.87425.82105-1.093308.93836.156187 1.05564 2.030431c11.04913 31.71848 19.15176 65.49237 21.58209 100.4283l.82106 3.12374 1.29024-1.40568 1.64211-5.15418 1.75941-7.65316c4.16159-24.209 7.63818-34.96717-.93835-57.94541l-1.994-5.62274-1.994-5.93511c-5.79901-16.33092-2.42564-18.69872-4.45717-33.736409l-.93835-3.123742-1.52482-2.498993-3.04964-4.217052-2.22859-4.529425-1.64212-4.529426-1.05564-4.685612-1.05565-4.8418-.82105-4.8418-1.17294-5.154174-1.64212-4.997987-1.8767-1.093309-2.1113-.937123-2.11129-.624748-1.99399-.780935c-4.86652-1.340111-9.10757-2.100205-13.7234-2.18662zm45.39277 18.27389 1.64212 3.74849 1.64211 3.592303c4.04426 9.958488 8.06044 19.960709 12.43316 29.675546l1.64212 3.592303 1.75941 3.592303 1.75941 3.5923 1.994 3.43612 1.99399 3.43612 2.11129 3.43611.82106.31238.93835-.62475.93836-1.40569 1.05564-1.87424 1.05565-1.71806 1.05564-1.40568.70377-.62475.58647.62475 1.64211 5.62273 1.17294 5.93511c2.65554 21.94116.55363 34.42363 13.37152 50.60462l1.40752 2.03043 1.40753 2.03043c9.00349 11.09553 12.1282 20.19187 17.12492 34.82972l.93835 3.12374 1.05565 3.12375.93835 2.81136 1.05565 3.12374c5.73333 17.01814 8.05575 19.65459 18.06327 31.70598l1.40753 1.87425 1.29023 1.87424c12.07659 18.51129-5.04364 32.28075-6.21658 49.19894l-.11729 3.74849v3.90467l-.1173 3.59231 1.29024-.15619c2.68368-.23741 5.18439-.24365 7.85869-.46856h1.40753l.23459-2.65518.23459-2.81137.11729-2.65518.23459-2.81137.23459-2.81137.46917-2.49899.70377-2.49899 1.05564-2.18662.82106-.78094 1.17294-.15618h1.40753l1.52482.31237 1.40753.31237h1.29023l1.05565-.31237.46917-.93712.23459-2.96756-.11729-2.96755-.58647-2.96756c-10.11074-24.76503 7.30037-30.43774-1.52483-44.6695l-1.64211-2.18662-1.75941-1.71806-1.8767-1.71806-2.1113-1.56187c-16.05989-11.01431-20.13233-8.0655-27.79867-32.95547l-1.40753-5.31037-1.29023-5.31036-1.17294-5.31036c-1.76879-8.95264-3.37807-17.91778-5.16093-26.86418l-1.17294-5.31036-1.29024-5.31036-1.52482-4.99799-1.64212-5.15417-1.99399-4.99799-.82106-.62474-1.40753.46856-1.64211 1.24949-1.64212 1.56187-1.75941 1.71806-1.52482 1.2495-1.05565.31237-.58647-.62475-.11729-4.68561c.7413-8.60903 4.00207-15.22512 5.8647-23.27187l.82106-4.68562v-4.685609c-1.06973-10.239626-5.44714-19.354704-9.50082-27.957489l-1.8767-4.529426-1.75941-4.685612-2.69776.312374c-11.51358 1.568118-24.7678.281137-35.65737-5.154174l-2.34588-1.093309zm112.13304 3.592303.93835 2.65518.70377 2.655181.70376 2.498993c6.89689 27.732579 8.04168 36.091708 29.90997 46.075188l1.99399 1.09331 1.994 1.2495 1.87671 1.09331c8.38415 5.50403 9.72131 11.9077 13.6061 22.33475l1.29023 3.12374 1.40753 2.96756c3.13877 5.31036 7.50681 9.47118 11.26022 14.05684l1.29023 1.56187 1.17294 1.56187 1.17294 1.71806 1.05565 1.56187.82106 1.87424.93835 1.71806c5.13746 11.79525-.9102 25.84584 2.69776 38.7344l.70376 3.43611.82106 3.27993c2.61799 10.10843 5.78493 19.83578 8.91434 29.67555l1.05565 3.27993.93835 3.27993 1.05565 3.27993c5.48934 22.62837 24.56604 22.52841 16.18657 50.91699l-.46918 3.74849-.11729 3.43611.35188 3.27993.58647-2.96755.93835-2.81137 1.05565-2.49899c4.68236-8.95891 6.3667-12.8136 5.7474-24.52138l-.46917-5.93511-.35189-5.93511-.23458-5.93511.23458-5.62273 1.05565-5.31036 1.8767-4.52943.1173-.15618.46917-.31238c.21453-.19421.37726-.39279.58647-.46856.17434-.06315.41562-.01221.58647 0h.1173l.70376.31237 1.29023 1.56188 1.17294 2.49899.1173.15619c.04416.10722.07329.20286.11729.31237.72326 1.80025 1.42512 3.88593 2.11129 5.93511.03112.10944.0872.20255.1173.31237l.23459.78094c.24421.97704.41741 1.96397.58647 2.96755 3.01262 17.88466-5.47236 39.72149-11.49481 54.19692l-1.75941 4.21705-1.64212 4.21706 1.52482-1.40569 1.52482-1.24949c8.25279-8.74649 9.20522-4.94178 12.08128-19.52339l1.05565-3.74849 1.17294-3.43612 1.52482-2.81136 1.75941-1.40569 2.46317.15619 1.75941 1.40568h.1173v.15619l.58647 1.40568.23459.78094v.31237l-.23459 2.03044-.1173.62474-.23458 1.40569-.46918 2.18662-1.29023 3.90467-1.17294 3.90468-1.17294 3.74849-.70377 3.43612 1.17294-2.81137 1.40753-2.81137c3.02503-4.19353 4.783-8.37397 5.63011-12.49496 1.42271-4.81236 1.23874-8.25623.11729-12.49497-.0258-.09751-.09049-.21399-.11729-.31238-1.26259-7.0979-4.208-14.23936-7.27223-21.39763-.1135-.26514-.23835-.51557-.35188-.78093-1.67262-4.22175-3.37572-8.41848-4.92634-12.65116l-.93836-2.49899-.82105-2.18662-.82106-2.34281-.82106-2.3428c-.4383-1.13957-.75765-2.27163-1.05565-3.43612-.29272-1.11663-.49468-2.14996-.70376-3.27993-.41911-2.30817-.7081-4.57198-1.05565-6.87223-.34836-2.25339-.7759-4.39288-1.40752-6.55986-.32966-1.14498-.68694-2.17597-1.17294-3.27992-.45284-1.04693-.89085-1.96716-1.52482-2.96756l-1.40753-2.34281-1.29024-2.3428c-.97023-1.43243-1.87364-2.76329-2.58046-4.06087-.71582-1.32471-1.26315-2.66987-1.75941-3.90467-1.99783-4.93806-2.4969-9.32025-3.28423-14.83778-.38671-2.75934-.86798-5.86169-1.64212-9.37122l-1.17294-3.43612-1.64212-3.27993-.82105-.78093-.70377.46856-.70376 1.40568-.1173.46856c-.94526 2.2508-1.33199 4.6004-1.40752 7.02842-.01057.10276-.10799.21127-.1173.31238-.00285.15913-.00009.30907 0 .46856-.20201 2.7258.13824 4.87593.70377 6.87223.09589.33851.1222.76009.23458 1.09331 2.67273 12.01096 9.41179 22.87369 1.05565 23.11569l-1.64212-.31238-1.05564-.93712-1.05565-1.40568-1.05564-1.40569-1.05565-1.71805c-1.94709-3.54857-3.48596-8.00303-4.80905-12.02641l-.58647-1.71806-.70377-1.56187-.23458-2.18662.11729-1.87424.46918-2.03043.70376-2.18662v-.15619l.82106-1.87425.58647-2.18662.35188-2.03043-.23459-2.03043-.46917-2.49899-.1173-.78094c-.09156-.53663-.24081-1.15208-.35188-1.71806-.20012-1.17362-.47511-2.31926-.70376-3.43611-1.20044-5.86349-2.80638-10.98768-4.69176-15.46252-.10171-.24136-.13116-.54313-.23459-.78094-.07288-.18972-.16218-.28398-.23459-.46856-1.09992-2.80372-2.12458-5.01568-2.93235-6.0913l-1.17294-2.03043-1.40753-2.03043c-.97942-1.38069-1.97251-2.68347-3.04964-3.90468-.02282-.02584-.09445.02579-.11729 0-.47959-.57512-.91558-1.17148-1.40753-1.71806-.34293-.35755-.70623-.7468-1.05565-1.09331-.26094-.27543-.55721-.51249-.82105-.78093-.6185-.59251-1.24336-1.15199-1.87671-1.71806-.53273-.5009-1.10038-.92788-1.64211-1.40568-1.19385-1.01814-2.306-1.99295-3.51882-2.96756-18.4649-14.45078-40.00783-19.46561-41.99125-54.353104l-.70376-4.685613-.93835-4.529425-1.17294-.156187c-5.30169-1.26824-10.77697-2.16163-16.06928-3.436116l-1.17294-.156187zm74.71627 1.249496c-12.81789.056228-24.67396 8.152966-37.41678 9.058851h-2.58047l1.8767 3.279929 1.994 3.592303 1.8767 3.592303 1.75941 3.904677c5.0108 10.620722 9.08794 20.366793 15.83469 29.363173l2.34588 2.96755 2.58047 2.65518c4.29296 4.57941 7.01417 5.26663 12.08128 3.90468h1.40753l1.17294.46856.93835.62475 1.64211 2.499c2.96989 5.76017 2.65084 13.31338 6.33388 18.43007l1.52482 1.87425 1.52482 1.56187c3.84255 3.53607 7.80239 5.48529 10.43917 11.08928l.93835 2.34281.70376 2.18662.82106 2.3428.58647 2.34281.82106 2.34281c7.84931 20.43551 26.6445 37.82226 33.89796 59.1949l1.05564 4.68561.70377 4.8418c1.54828 50.21728 23.36965 22.35349 9.14893 70.59657l-1.52483 4.99798-1.52482 5.15418-1.29023 5.46655 1.29023-.15619 1.52482-.46856 1.64212-.46856 1.64212-.46856 1.75941-.46857 1.52482-.46856 1.52482-.31237 1.40753-.31238 1.52482-2.96755 1.52482-2.81137 1.52482-2.81137 1.40753-2.81136 1.40753-2.96756 1.05564-2.96755.93836-3.12374.46917-3.27993c1.95646-15.2751.1173-33.47402-4.80905-47.48088l-.93835-2.81137-1.05565-2.65518-1.29023-2.65518c-15.25291-26.65176-20.57338-34.01754-32.49044-65.59857l-1.64211-3.74849-1.75941-3.43612-1.75941-3.43611-1.75941-2.96756-1.8767-2.81137-1.87671-2.49899-3.98799-5.46655-2.22859-4.68561-.93835-4.37324v-4.06086l.35188-4.06087.58647-4.21705.23459-4.8418-.35188-5.46655-.23459-.78093-.58647-.46856-.58647-.15619c-2.71184-.21242-6.84996 3.50484-9.7354 3.90468l-1.17294.15618h-.82106l-.70376-.46856-.58647-.62475c-4.80436-9.17755 2.04561-20.94781-1.994-31.237414l-.82106-2.186619-.70376-2.18662c-2.75406-6.647322-6.12275-12.544946-9.38352-18.74245l-1.05564-2.030432-1.17294-2.030432-.93836-2.030432-1.05564-2.18662-2.69776-.156187zM227.5176 66.782732l-.58647.780936-.58647 2.342806-.58647 2.967555-.46918 3.436116c-1.18232 10.520762-.94304 10.945591 3.40153 19.211011l.70376 1.561871.46918 1.718058c1.79694 7.765625.1689 13.831925 4.69176 20.772885l1.05564 1.40568.93836 1.56187 1.05564 1.40569c13.99083 16.14349 15.91914 16.14349 26.74303 38.26583l1.64211 3.12374.93836 1.40569.82105 1.56187c14.00021 30.7876 20.88772 12.51371 17.71139 46.54375l-.23458 4.99799v4.8418c3.52821 32.61185 28.91062 26.23318 33.19419 74.81361l.70377 5.77892.93835 5.77893.93835 5.93511 2.22859-1.09331c7.79768-4.22956 21.53517-9.48368 29.44078-4.06087l2.46318 1.56187-1.40753-2.49899-1.52482-2.34281-1.52482-2.3428c-9.06447-13.55079-16.87157-23.98409-23.57609-40.14008l-.82106-2.18662-.82106-2.18662c-7.65696-20.84161-11.54173-29.13202-21.81668-48.26181l-1.05564-2.81137-.93836-2.96755-.70376-3.12375-.46918-3.27993-.35188-3.43611c.75068-10.48328-3.13878-16.61206-8.32787-23.74044l-2.58047-3.27993-2.58047-3.12374c-5.33451-6.27247-12.54107-13.19468-16.30386-21.24144l-1.05564-2.96756-1.05565-3.12374-1.17294-2.96755c-12.36748-23.28438-26.29731-27.84504-35.77466-57.789227l-1.29024-4.060864-1.17294-4.217051-.93835-3.74849-.35188-.780936zM373.19672 98.02015l.93835 4.8418.82106 4.99799c11.07254 64.12417 8.90965 68.90974 42.34313 116.51556l1.8767 3.27993 1.994 3.27993 1.8767 3.12374c7.291 11.52663 15.42181 21.92867 21.34751 34.82972l1.52482 3.43612 1.52482 3.5923c5.71925 13.37586 15.95667 26.17071 24.04526 37.17253l1.994 2.49899 1.87671 2.18662 1.52482 2.03043-1.87671-3.27992-1.99399-3.59231c-20.88772-39.45286-40.4805-70.17798-63.92522-106.83197l-2.93235-4.99798-2.69776-5.31036-2.58047-5.15418c-13.19791-25.85833-9.68379-46.69994-13.13693-75.43836l-1.05564-.93712-1.05565-.78094c-3.92699-3.41737-7.18777-6.7098-10.32187-11.40166l-.70376-1.40568-.70377-1.405683-.70376-1.249497zm-197.64035 92.46276-.35188 1.24949.35188 3.74849 1.05564 5.77892c1.57174 11.21424 6.64353 25.50223 3.40153 36.54778l-.46918 2.18662-.35188 2.18662c-.86328 6.42241 2.91358 11.16425 5.63011 15.7749l1.29024 2.18662 1.05564 2.3428.70376 2.34281.58647 4.37324c-.39879 13.23217.1736 12.37003 1.52483 23.27187l-.1173 1.09331-.35188 1.09331c-1.58581 3.83596-3.35461 4.92929-3.75341 9.83979l-.23458 3.5923v3.59231l-.1173 3.5923 1.994.15619c9.26622.94337 18.35416 2.5552 27.68138 2.81136h1.994l-1.05565-3.74849-1.29023-3.74849-1.40753-3.74849c-3.51882-9.6711-3.85194-11.4329-4.33988-22.02238l-1.05564-2.65518-1.40753-2.49899c-4.03022-5.74769-7.37545-6.56609-10.32187-14.21303l-1.29024-2.96755-1.29023-2.96755-1.29023-2.96756c-7.90093-19.97945-.43165-39.12799-13.25422-59.97584l-1.87671-3.90468-1.64211-2.3428zm-3.8707 84.6534-2.22859 1.40568c-25.87974 34.47363-19.15645-18.18018-62.16581 18.27389l-1.52482 1.40568.82106 4.68562c1.40753 9.41493 2.88074 18.83616 4.22258 28.26986l.82106 4.68561h1.17294c24.15787 5.12296 37.00859-10.00847 60.17181-17.49295l2.81506-.78094-.1173-5.46655c-.15483-9.6461.23928-24.17151-2.46317-33.11166l-1.52482-1.87424z" style="opacity:1;fill:#000;fill-opacity:.33830848;fill-rule:nonzero;stroke:none" transform="translate(-61.613462 -28.666531)"/>
  </g>
</svg>