<?xml version="1.0" encoding="UTF-8"?>
<svg id="Capa_1" data-name="Capa 1" xmlns="http://www.w3.org/2000/svg" viewBox="0 0 1906.17 334.74">
  <defs>
    <style>
      .cls-1 {
        fill: #fff;
        stroke-width: 0px;
      }
    </style>
  </defs>
  <g>
    <path class="cls-1" d="M388.38,286.61h-89.89l-14.93,43.95h-61.06l98.86-239.14h44.82l98.86,239.14h-61.74l-14.93-43.95ZM373.45,242.32l-29.85-77.52-30.19,77.52h60.04Z"/>
    <path class="cls-1" d="M534.77,286.64h77.34v44.44h-135.35V91.25h58.01v195.39Z"/>
    <path class="cls-1" d="M704.23,91.25v239.82h-58.01V91.25h58.01Z"/>
    <path class="cls-1" d="M938.91,273.44c-10.06,18.21-24.54,32.39-43.42,42.57-18.88,10.18-41.1,15.26-66.65,15.26h-90.57V91.45h90.57c25.78,0,48.05,4.98,66.83,14.93,18.77,9.95,33.18,23.97,43.25,42.06,10.06,18.1,15.1,38.9,15.1,62.42s-5.04,44.38-15.1,62.58ZM876.5,261.4c12.55-11.98,18.83-28.83,18.83-50.54s-6.28-38.55-18.83-50.54c-12.55-11.98-30.14-17.98-52.75-17.98h-27.48v137.04h27.48c22.61,0,40.2-5.99,52.75-17.98Z"/>
    <g>
      <polygon class="cls-1" points="36.78 157.08 99.55 157.08 88.31 135.46 25.5 135.46 36.78 157.08"/>
      <polygon class="cls-1" points="109.22 175.7 46.5 175.7 59.15 199.93 121.81 199.93 109.22 175.7"/>
      <polygon class="cls-1" points="241.96 3.99 143.79 242.22 131.49 218.55 68.86 218.55 126.13 330.81 162.19 330.81 301.04 3.99 241.96 3.99"/>
      <polygon class="cls-1" points="78.64 116.85 65.66 91.86 2.75 91.86 15.79 116.85 78.64 116.85"/>
    </g>
  </g>
  <g>
    <g>
      <path class="cls-1" d="M1257.56,92.13v238.95h-58v-149.43l-51.56,149.43h-50.2l-51.9-149.77v149.77h-58V92.13h70.89l64.79,166.45,63.43-166.45h70.55Z"/>
      <path class="cls-1" d="M1349.51,91.25v239.82h-58.01V91.25h58.01Z"/>
      <path class="cls-1" d="M1596.48,331.08h-58.01l-97.02-147.22v147.22h-58V91.25h58l97.02,148.57V91.25h58.01v239.82Z"/>
      <path class="cls-1" d="M1831.07,273.24c-10.06,18.21-24.54,32.39-43.42,42.57-18.88,10.18-41.1,15.26-66.65,15.26h-90.57V91.25h90.57c25.78,0,48.05,4.98,66.83,14.93,18.77,9.95,33.18,23.97,43.25,42.06,10.06,18.1,15.1,38.9,15.1,62.42s-5.04,44.38-15.1,62.58ZM1768.65,261.2c12.55-11.98,18.83-28.83,18.83-50.54s-6.28-38.55-18.83-50.54c-12.55-11.98-30.14-17.98-52.75-17.98h-27.48v137.04h27.48c22.61,0,40.2-5.99,52.75-17.98Z"/>
    </g>
    <g>
      <polygon class="cls-1" points="1901.24 90.89 1896.24 90.89 1894.87 90.89 1888.68 108.14 1882.52 90.89 1881.16 90.89 1876.15 90.89 1873.61 90.89 1873.61 118.02 1881.16 118.02 1881.16 103.96 1886.54 118.02 1890.82 118.02 1896.24 103.91 1896.24 118.02 1903.79 118.02 1903.79 90.89 1901.24 90.89"/>
      <polygon class="cls-1" points="1844.83 97.01 1853.08 97.01 1853.08 118.02 1860.64 118.02 1860.64 97.01 1868.9 97.01 1868.9 90.89 1844.83 90.89 1844.83 97.01"/>
    </g>
  </g>
</svg>